<?xml version="1.0" encoding="UTF-8"?>
<svg id="Calque_2" data-name="Calque 2" xmlns="http://www.w3.org/2000/svg" viewBox="0 0 90.46 18.53">
  <g id="Calque_1-2" data-name="Calque 1">
    <g>
      <path d="M7.89,10.65c-.02.06-.04.13-.06.19.02.06.05.11.07.17-.02.07-.04.14-.06.21-.13.11-.25.23-.37.35-.11.12-.21.24-.31.37-.07.12-.13.25-.2.39-.17.11-.33.22-.5.34-.12.14-.24.28-.36.43-.16.11-.32.23-.48.34-.16.11-.33.21-.49.32-.16.1-.33.2-.49.3-.12.08-.24.16-.37.24-.16.1-.32.19-.47.29.13.13.26.26.38.39,0,.2,0,.41,0,.62.07.16.14.32.21.48.11.13.21.25.32.37,0,.22,0,.44.01.67.1.12.2.23.3.34-.15.22-.3.45-.45.67-.17.13-.34.27-.52.39-.06-.15-.12-.3-.17-.46-.1-.14-.2-.29-.3-.43-.03-.21-.07-.42-.1-.63-.1-.14-.2-.29-.31-.44-.04-.2-.08-.4-.11-.6-.06-.18-.11-.36-.17-.55-.09-.16-.19-.32-.28-.48-.03-.2-.05-.4-.07-.59-.15-.13-.31-.26-.46-.4,0-.21.01-.42.02-.62-.09-.17-.18-.33-.27-.5-.11-.16-.22-.33-.33-.49-.09-.17-.19-.34-.28-.52.02-.2.05-.39.08-.57-.12-.17-.24-.33-.36-.51-.06-.18-.12-.35-.18-.53-.09-.17-.17-.35-.26-.53-.13-.18-.26-.36-.39-.54-.04-.2-.08-.4-.12-.6.27.01.54.03.81.05.11,0,.23,0,.34-.01.24.12.48.23.72.33.18-.01.37-.02.55-.02.18-.03.37-.05.55-.07.21.05.42.09.63.14.21.04.42.07.62.1.21.07.41.13.61.19.18.08.37.15.55.22.21.03.41.07.61.1.15.07.3.14.45.2.15.06.3.12.44.18.12.06.23.12.34.18.12.06.24.11.36.15.12.05.25.1.37.14-.03.07-.06.15-.09.22ZM6.51,10.65c-.13-.07-.25-.14-.38-.21-.15-.06-.31-.12-.47-.19-.16-.07-.33-.15-.5-.23-.21-.03-.42-.07-.64-.11-.21.02-.41.05-.62.08-.21-.05-.42-.1-.64-.15-.19.03-.38.06-.57.1-.2-.02-.39-.03-.59-.05.04.14.08.29.12.44.05.15.09.3.14.45.06.15.12.3.18.44.03.15.06.31.1.46.13.14.26.27.39.39-.01.17-.03.33-.04.51.07.15.13.3.2.44.11.13.21.25.32.37.13,0,.26.01.39.01.11-.1.23-.2.34-.29.17-.12.34-.24.51-.36.2-.07.41-.14.61-.21.16-.13.32-.25.49-.37.11-.14.23-.27.34-.4.12-.11.24-.21.37-.31,0-.1-.02-.19-.02-.28,0-.09.01-.18.02-.27-.02-.09-.04-.19-.06-.28Z"/>
      <path d="M11.94,15c.08.21.15.43.23.64-.43-.49-.85-.97-1.28-1.43-.35-.37-.69-.75-1.04-1.11-.07-.11-.13-.22-.2-.33.08.03.16.05.24.06-.14-.19-.28-.35-.41-.51.02-.04.03-.08.04-.14.03-.04.06-.08.09-.14-.13-.14-.26-.26-.38-.36,0-.06,0-.12-.01-.19-.07-.08-.13-.15-.2-.21.05-.06.1-.13.14-.22,0-.08,0-.17-.01-.26-.1-.05-.19-.08-.27-.1.02-.09.03-.2.04-.31,0-.1,0-.21,0-.33-.09.02-.18.05-.26.11,0-.09-.01-.19-.02-.29,0-.14,0-.29,0-.44-.03-.07-.05-.14-.08-.21-.05.03-.09.07-.13.12,0-.17,0-.35-.02-.55.06-.52.11-1.05.16-1.58.06-.65.12-1.3.18-1.96.07.26.14.51.2.75.05.22.1.43.15.64.05.22.09.44.13.66.09.03.19.08.29.15.04.25.07.49.1.72.03.22.06.44.09.64.05.18.09.35.14.53.06.16.12.31.18.47.1.13.19.28.3.43.02.19.04.37.05.55.09.16.19.32.29.5,0,.17,0,.33,0,.48.06.16.13.33.19.5.06.17.13.34.19.51.07.17.14.35.21.53,0,.14,0,.26,0,.38.2.28.41.58.63.9.01.14.02.27.02.39Z"/>
      <path d="M19.26,9.5c-.06.12-.12.25-.18.38.04.04.08.09.11.13-.16.18-.32.36-.48.54-.19.12-.38.23-.57.34-.17.18-.35.37-.52.56-.06-.06-.12-.12-.18-.19-.06-.07-.12-.14-.17-.21-.12,0-.25-.01-.38-.03-.05-.09-.1-.18-.15-.27,0-.13,0-.26-.01-.39-.07-.08-.14-.16-.21-.24-.12-.04-.25-.09-.37-.14-.1-.07-.19-.15-.29-.23-.05-.11-.1-.22-.15-.33-.08-.09-.16-.19-.24-.29-.03-.12-.07-.24-.1-.37-.15-.07-.29-.15-.44-.23-.11-.1-.22-.2-.32-.31-.05-.13-.1-.26-.15-.39-.02-.14-.04-.28-.05-.42-.1-.12-.2-.24-.31-.36-.08-.13-.16-.26-.24-.39-.1-.15-.19-.3-.29-.46-.19-.02-.38-.03-.57-.05-.2-.02-.4-.04-.6-.07.06.19.13.37.19.56.07.16.14.31.21.47-.02.15-.04.31-.06.47.12.16.24.31.35.45.05.15.1.31.15.46.02.16.04.31.07.47.04.16.07.31.11.47.04.16.07.31.11.47.11.14.21.27.32.4-.05.19-.1.38-.15.57.13.12.26.23.39.34-.06.2-.12.41-.19.63.04.16.08.32.12.48.1.12.2.24.31.35.06.14.12.29.17.43.05.15.1.29.15.44.03.19.06.37.09.56-.22.14-.44.28-.66.41-.16.14-.33.27-.49.41-.02-.16-.03-.32-.05-.48l-.15-.54c-.09-.15-.17-.3-.26-.46-.01-.21-.02-.41-.04-.62-.07-.17-.15-.33-.22-.5-.12-.14-.25-.29-.38-.43.01-.21.02-.43.03-.63-.12-.15-.24-.31-.37-.47-.02-.2-.04-.39-.05-.59-.04-.19-.09-.37-.13-.56-.05-.18-.1-.37-.15-.55-.01-.19-.02-.38-.03-.57,0-.19-.02-.37-.02-.56-.06-.18-.12-.36-.18-.54-.04-.18-.07-.36-.11-.54-.05-.18-.09-.36-.14-.54-.15-.19-.3-.38-.46-.58.03-.18.07-.35.1-.51-.14-.23-.28-.46-.43-.7.26.13.52.25.78.37.19.02.39.03.58.05.2.05.41.1.61.15.18-.03.37-.05.55-.07.22.1.43.19.65.28.18.05.36.1.54.14.14.12.27.24.4.35.07.13.14.25.21.37.04.12.08.25.11.37.15.11.29.22.43.32.05.12.1.23.14.35.1.1.19.21.29.3.1.1.21.19.31.28.02.11.04.23.06.34.13.08.26.15.38.21.1.08.19.15.29.22.06.09.11.17.17.26.1.06.19.12.29.18.07.07.13.14.2.21.04.11.08.22.12.33-.02-.11-.03-.23-.05-.34-.02-.08-.04-.17-.07-.25-.05-.07-.11-.15-.16-.22.05-.11.1-.22.15-.32-.04-.08-.07-.16-.11-.24-.09-.07-.19-.14-.29-.21,0-.09,0-.18,0-.27-.03-.08-.05-.17-.08-.26,0-.09-.01-.17-.02-.26-.07-.08-.13-.17-.2-.26-.05-.09-.1-.18-.14-.27.04-.08.09-.16.13-.24-.09-.09-.18-.19-.27-.29.05-.07.1-.14.15-.2.24.05.48.1.72.14.23.05.47.11.7.16.1.08.19.15.29.21-.03.05-.06.11-.1.17,0,.06.02.13.03.19.02.06.04.13.07.19,0,.06-.02.13-.03.2.05.06.1.13.15.19.03.06.05.13.08.19.02.06.04.13.06.19-.02.07-.04.14-.05.22.02.06.04.13.06.19,0,.07,0,.14.01.21,0,.07,0,.14,0,.22.05.05.11.1.16.15.01.07.02.14.03.2.03.06.07.11.1.17.04.05.07.1.11.15.03.05.07.1.1.15Z"/>
      <path d="M24.32,5.95c-.14.14-.27.27-.41.4.17.06.34.13.52.2.1.11.19.22.29.34.11.11.22.22.33.33.15.09.3.19.44.28.12.12.25.23.37.36.11.13.22.26.34.4.09.15.17.3.26.46.12.14.25.28.38.42.07.17.15.34.23.51.18.13.36.26.54.4.07.18.15.37.22.55.12.17.24.34.36.52.16.16.32.33.48.5-.18-.04-.37-.08-.55-.11-.18-.03-.37-.07-.55-.11-.21-.02-.42-.03-.63-.05-.06-.2-.12-.4-.18-.6-.16-.14-.33-.28-.49-.41-.16-.14-.31-.27-.46-.39-.05-.16-.11-.32-.16-.47-.19-.11-.37-.21-.56-.31-.08-.14-.17-.27-.25-.4-.15-.1-.29-.21-.44-.3-.12-.11-.24-.21-.36-.31-.04-.14-.07-.28-.11-.41-.16-.08-.31-.15-.47-.21-.09-.12-.18-.24-.27-.35-.07.15-.13.29-.2.43-.21.07-.42.13-.63.19-.03.12-.07.24-.1.36-.13.08-.27.15-.41.22-.09.07-.19.14-.29.21-.09.08-.18.15-.27.22.12.08.24.17.35.27-.05.08-.1.16-.15.24.03.09.06.17.09.26.06.09.12.18.18.28,0,.11.02.21.03.32-.29-.08-.58-.17-.86-.25-.24-.06-.48-.12-.72-.17-.06-.07-.12-.15-.18-.22.04-.06.07-.11.11-.17.04-.06.08-.12.11-.18-.04-.07-.08-.14-.12-.21,0-.07,0-.13,0-.2-.06-.07-.12-.13-.18-.2.01-.07.03-.13.04-.2-.01-.07-.03-.13-.04-.2-.06-.06-.12-.12-.18-.18.02-.07.04-.14.05-.21.05-.08.1-.16.15-.24-.02-.07-.04-.13-.05-.2-.11-.04-.22-.07-.33-.1.08-.1.17-.2.25-.3,0-.07-.01-.14-.02-.21-.06-.05-.11-.1-.17-.14-.02-.06-.04-.12-.06-.18-.06-.04-.13-.07-.19-.1.07-.1.15-.2.22-.31.17-.12.35-.25.52-.38.19-.12.38-.23.57-.34.07.03.13.07.2.11-.04.12-.09.24-.13.35.02.08.04.16.06.23-.02.1-.04.2-.06.29l.05.24c.09.05.19.1.28.15-.06.11-.12.22-.19.32.02.08.03.16.05.24,0,.08,0,.17,0,.25.08.06.16.12.24.19.11-.08.21-.15.32-.23.08-.09.16-.19.25-.29.12-.09.25-.19.37-.28.14-.1.27-.19.41-.3.07-.12.13-.24.2-.37.1-.12.2-.24.3-.36.1-.13.2-.25.29-.39.1-.13.2-.27.3-.41.12-.13.25-.27.37-.41.06-.16.11-.31.17-.48.13-.15.25-.3.38-.45.08-.16.17-.33.25-.5.15-.16.31-.31.46-.48.04-.21.08-.42.11-.63.22-.06.43-.12.65-.17.17-.22.35-.45.52-.68.23-.12.46-.23.68-.35-.08.26-.17.51-.25.76-.1.19-.19.38-.29.57-.15.17-.3.33-.45.49-.04.2-.08.39-.12.58-.07.18-.15.36-.23.53-.16.14-.32.28-.48.42-.06.17-.11.34-.17.5-.07.16-.14.32-.21.47-.13.13-.25.26-.38.39-.12.13-.24.26-.35.38Z"/>
      <path d="M38.44,11.02c-.24-.13-.47-.26-.71-.38-.21-.17-.41-.33-.62-.49-.19-.02-.39-.04-.58-.07-.21-.16-.41-.32-.62-.48-.2-.09-.4-.18-.6-.27-.2-.09-.4-.18-.6-.27-.2-.05-.39-.1-.59-.16-.2-.14-.41-.28-.61-.41-.2-.08-.4-.16-.6-.25,0,0,0-.02,0-.03-.23-.11-.45-.23-.68-.34-.04-.08-.08-.16-.12-.23.07-.03.14-.07.21-.11-.03-.08-.05-.16-.08-.23,0-.07,0-.14,0-.21-.06-.08-.12-.16-.17-.24.06-.05.13-.11.19-.17-.02-.07-.04-.15-.07-.22-.06-.07-.12-.14-.18-.21,0-.07,0-.13-.01-.2-.02-.07-.05-.13-.07-.19.07-.07.14-.15.21-.24-.1-.05-.21-.1-.31-.14.03-.07.07-.15.1-.23.04-.08.08-.16.12-.25-.08-.04-.16-.08-.24-.11.07-.1.14-.2.21-.31-.03-.06-.05-.12-.08-.17.02-.08.04-.17.06-.25-.04-.05-.08-.09-.12-.13.21-.17.43-.34.64-.52,0,0,0,0,0,.01.18-.13.36-.26.55-.38.18-.13.36-.26.55-.38.18-.1.37-.19.56-.28.18-.14.36-.27.54-.41.18-.12.37-.25.55-.37.18-.2.35-.4.53-.6.19-.05.38-.09.57-.13.18-.14.36-.28.54-.42.15-.12.31-.23.46-.35.06.18.12.35.17.53-.02.23-.05.46-.07.69-.15.08-.3.17-.46.25-.17.18-.35.35-.52.51-.19,0-.37.02-.56.04-.18.11-.36.21-.54.32-.18.09-.36.19-.54.28-.18.11-.36.21-.54.32-.18.15-.35.3-.53.44-.19.07-.38.14-.57.22.06.06.13.13.19.2,0,.1-.02.2-.02.3-.04.11-.08.22-.12.33-.04.11-.08.21-.12.31.06.07.13.14.19.22.02.08.04.17.06.26.17-.05.35-.1.52-.15.18.02.37.05.56.08.18-.08.35-.16.53-.24.18,0,.37,0,.55,0,.18-.02.36-.04.54-.05.18-.06.37-.13.55-.19.07.19.15.39.22.6-.05.21-.1.41-.15.61-.18-.04-.36-.08-.55-.12-.18.03-.36.06-.54.09-.18.03-.36.06-.54.09-.19-.04-.37-.08-.56-.12-.18.06-.36.12-.54.17-.17-.01-.34-.02-.51-.03-.04.09-.09.18-.13.27.03.1.05.19.08.29,0,.1,0,.19,0,.29.03.1.06.2.08.3,0,.1.01.19.02.29.03.1.06.2.09.3.18.06.37.13.55.19.19.06.39.13.58.19.2.11.4.23.59.35.19.05.38.09.58.13.19.07.39.14.58.22.2.08.39.16.58.25.19.01.38.02.57.02.2.09.4.18.6.27-.03.22-.06.44-.09.65.1.29.2.58.3.89Z"/>
      <path d="M43,6.65c-.01.1-.03.21-.04.31,0,.09,0,.18,0,.26-.19.17-.39.33-.58.49-.18.19-.35.39-.53.59-.18.16-.36.32-.53.48-.18.18-.35.37-.53.55-.18.18-.35.36-.53.54-.18.14-.36.28-.54.41-.17.14-.34.29-.51.43-.06-.12-.13-.26-.19-.39.04-.23.09-.46.13-.69.05-.23.11-.46.16-.68-.07-.14-.13-.29-.2-.45-.04-.17-.07-.35-.11-.52.07-.23.14-.44.21-.65-.07-.16-.14-.33-.21-.5.08-.21.15-.41.23-.61-.1-.17-.19-.34-.29-.53,0-.19-.02-.38-.03-.57.04-.19.08-.37.12-.55.02-.18.05-.36.07-.54-.04-.19-.09-.39-.13-.58,0-.18,0-.37,0-.55.01-.18.03-.35.04-.53-.04-.2-.09-.41-.14-.62-.03-.2-.06-.41-.1-.62-.03-.21-.07-.42-.1-.64.05-.15.11-.29.16-.43.24.21.47.42.71.63.22.19.44.38.65.57.06.18.13.35.19.51-.08.07-.17.15-.25.23.02.16.05.32.07.47.09.2.19.38.28.56-.11.08-.22.17-.33.27.08.18.16.35.24.51-.03.13-.05.26-.08.4.03.15.06.29.1.44-.07.13-.13.27-.2.41.09.15.18.29.27.43.02.14.04.27.06.41-.06.14-.12.3-.18.45,0,.15-.02.29-.03.44.02.14.04.27.06.41-.02.15-.03.3-.05.46.08.11.15.21.23.3-.03.15-.06.3-.08.46.19-.13.39-.25.58-.38.2-.13.4-.27.6-.4.2-.12.41-.25.61-.38.23-.2.47-.4.7-.59Z"/>
      <path d="M49.43,10.97c-.22-.15-.45-.3-.67-.45-.19-.19-.38-.37-.57-.55-.19-.04-.38-.08-.57-.13-.19-.18-.38-.36-.57-.53-.19-.11-.38-.22-.57-.33-.19-.11-.38-.22-.57-.33-.19-.07-.38-.14-.57-.22-.19-.16-.38-.32-.57-.47-.19-.1-.38-.2-.57-.3,0,0,0-.02,0-.03-.21-.14-.43-.27-.64-.41-.03-.08-.06-.16-.1-.24.08-.03.15-.06.22-.09-.02-.08-.04-.16-.05-.24,0-.07.01-.14.02-.2-.05-.09-.1-.17-.15-.26.07-.05.14-.1.21-.15-.01-.08-.03-.15-.05-.22-.05-.08-.1-.16-.15-.23,0-.07,0-.13,0-.2-.02-.07-.03-.13-.05-.2.08-.07.16-.14.23-.21-.1-.06-.19-.12-.29-.17.04-.07.08-.14.12-.22.05-.08.09-.15.14-.24-.08-.05-.15-.09-.23-.13.08-.09.16-.19.24-.29-.02-.06-.04-.12-.06-.18.03-.08.06-.16.08-.25-.04-.05-.07-.1-.1-.15.23-.15.46-.3.69-.45,0,0,0,0,0,.01.19-.11.39-.22.58-.33.19-.11.39-.22.58-.33.19-.08.39-.16.58-.23.19-.12.39-.23.58-.35.19-.11.39-.21.58-.32.2-.18.39-.36.59-.55.19-.03.39-.05.58-.07.19-.12.39-.24.58-.37.16-.1.33-.2.49-.3.04.18.08.36.12.55-.05.23-.09.46-.14.68-.16.07-.32.14-.48.21-.19.16-.38.31-.57.46-.19-.01-.38-.02-.56-.02-.19.09-.38.18-.57.27-.19.08-.38.15-.57.23-.19.09-.38.18-.57.26-.19.13-.38.26-.57.39-.2.05-.39.1-.59.16.06.07.12.14.17.22-.02.1-.03.2-.05.29-.05.11-.1.21-.15.31-.05.1-.1.2-.15.3.06.08.11.16.17.24.01.09.02.17.03.26.18-.03.36-.06.53-.1.18.04.36.08.54.13.18-.06.37-.12.55-.19.18.01.36.03.55.05.18,0,.37,0,.55,0,.19-.04.38-.09.57-.14.05.2.11.41.16.62-.07.2-.14.4-.21.59-.18-.06-.35-.12-.53-.17-.18.01-.37.03-.55.04-.18.01-.37.03-.55.04-.18-.06-.36-.12-.54-.17-.18.05-.37.09-.55.12-.17-.03-.34-.05-.51-.08-.05.09-.1.17-.16.25.02.1.03.2.05.3,0,.1-.02.19-.03.28.02.1.04.2.05.31,0,.1,0,.19-.01.29.02.1.04.2.06.3.18.08.35.16.53.25.19.08.37.16.56.25.19.13.37.27.56.41.19.07.37.13.56.19.19.09.37.18.56.27.19.1.37.2.56.3.19.03.38.05.56.08.19.11.38.22.58.33-.05.22-.1.43-.15.64.07.3.14.6.21.91Z"/>
      <path d="M57.09,5.33s-.09.1-.13.15c0,.06,0,.12-.01.19-.05.05-.1.11-.15.16-.16.04-.32.1-.49.15-.15.06-.29.12-.44.2-.12.08-.23.17-.35.26-.2.03-.4.06-.6.09-.17.07-.34.15-.51.23-.19.03-.39.06-.58.1-.19.02-.39.05-.58.07-.19.02-.38.04-.58.06-.14.02-.29.03-.43.05-.18.02-.37.04-.55.05.06.18.12.35.17.51-.09.18-.17.37-.26.56,0,.17-.01.35-.02.52.04.16.08.32.12.47-.09.2-.19.4-.28.61.04.15.08.3.12.44-.23.13-.47.27-.71.41-.21.05-.42.09-.64.13.02-.16.03-.32.04-.49-.03-.17-.05-.34-.08-.52.06-.2.12-.41.19-.61-.03-.17-.06-.35-.08-.53.05-.2.11-.39.16-.59.03-.19.06-.38.09-.56-.01-.18-.03-.37-.04-.55.07-.19.13-.38.2-.56-.08-.18-.16-.37-.24-.57.1-.19.19-.37.29-.55,0-.19-.01-.38-.02-.57-.03-.19-.05-.39-.08-.59,0-.19-.02-.39-.03-.59.11-.17.22-.32.32-.48-.03-.2-.07-.41-.1-.61.02-.18.05-.37.07-.55,0-.19,0-.39,0-.59-.04-.22-.07-.43-.11-.65.05-.2.11-.39.16-.59.24.13.47.26.71.4.1.05.21.09.31.14.17.21.33.41.5.61.17.07.34.15.51.22.18.06.35.12.53.18.17.13.33.27.5.4.17.12.34.24.51.36.15.15.31.3.46.44.13.15.26.3.39.44.17.12.34.24.51.35.11.13.21.26.32.38.11.12.21.24.32.36.08.11.15.21.23.31.09.1.17.2.26.3.09.1.18.2.27.29-.06.05-.12.1-.18.16ZM55.86,4.73c-.08-.11-.17-.23-.25-.36-.11-.12-.23-.24-.34-.37-.12-.14-.23-.28-.35-.42-.18-.12-.35-.25-.53-.38-.2-.07-.39-.13-.59-.2-.17-.13-.34-.27-.51-.41-.18-.06-.37-.11-.55-.16-.17-.1-.34-.2-.51-.3-.03.15-.06.3-.08.44-.02.15-.05.31-.07.46l-.03.48c-.04.15-.08.3-.12.46.06.18.12.35.18.52-.08.14-.17.29-.25.44,0,.16-.01.32-.02.48.04.16.08.32.12.48.12.06.23.12.35.18.15-.04.29-.08.44-.11.21-.04.41-.07.61-.1.21.03.43.05.64.08.2-.04.4-.08.6-.12.16-.08.32-.14.48-.21.16-.04.31-.08.47-.12.03-.09.07-.18.1-.27.05-.08.09-.16.14-.23.02-.09.04-.19.06-.28Z"/>
      <path d="M65.96,7.98c-.04.06-.08.13-.12.2-.01.07-.02.13-.03.2-.02.07-.04.13-.06.2-.05.07-.1.15-.15.22,0,.07-.02.14-.03.2,0,.05-.02.1-.02.16-.2.05-.41.09-.61.14-.26.1-.52.2-.79.31.02-.09.04-.19.06-.28-.01-.08-.03-.15-.04-.23.03-.09.07-.18.1-.26.06-.09.12-.18.17-.27-.03-.08-.05-.16-.08-.24.08-.09.16-.17.24-.25-.04-.08-.08-.16-.12-.24.02-.08.04-.17.05-.25-.02-.07-.05-.15-.07-.22-.16-.03-.32-.07-.48-.1-.18-.04-.37-.09-.55-.14-.19,0-.38.02-.58.03-.19-.02-.38-.04-.56-.06-.19.01-.39.03-.58.05-.18-.06-.36-.11-.55-.17-.19.02-.39.04-.58.06-.18-.05-.37-.11-.55-.17-.18-.02-.37-.04-.55-.07.03.16.07.32.1.47-.08.15-.16.31-.25.46-.03.16-.05.32-.08.47,0,.16,0,.31-.01.47,0,.15,0,.31.01.46-.05.16-.11.32-.17.48-.08.16-.15.33-.23.5.04.15.08.29.12.43-.06.16-.12.33-.18.5-.24.05-.48.1-.72.14-.28.13-.57.26-.85.39.08-.24.17-.48.25-.72.05-.19.11-.39.16-.58,0-.18,0-.36,0-.55.02-.19.04-.37.06-.56.02-.19.05-.38.07-.56.08-.19.17-.38.25-.57-.06-.19-.11-.37-.17-.57.08-.19.15-.37.23-.56.01-.19.03-.38.04-.57.07-.18.13-.37.2-.55-.02-.2-.05-.39-.07-.6.08-.18.17-.35.25-.52-.06-.21-.12-.43-.18-.65.1-.17.19-.33.29-.5.06-.17.13-.35.19-.52-.04-.22-.08-.44-.12-.66.04-.18.08-.37.12-.55.08-.16.17-.32.25-.47-.01-.2-.03-.41-.04-.62.2.14.41.28.61.42.17.14.34.28.51.42.02.15.04.3.05.45-.08.14-.16.28-.23.42,0,.18,0,.36-.01.54.05.21.1.41.16.61-.09.14-.19.28-.29.42-.02.17-.05.34-.07.51,0,.18-.01.35-.02.53-.07.19-.14.38-.2.57.22.02.44.05.67.07.19,0,.38.01.57.02.18.1.35.2.53.29.19.02.38.03.56.05.19,0,.38.02.57.03.18.08.36.16.54.24.18.06.36.12.54.18.18.05.37.1.55.15.2.01.39.03.59.04,0-.1-.02-.19-.03-.29.06-.08.12-.15.18-.22-.06-.11-.11-.22-.17-.34.08-.06.17-.12.25-.18.03-.08.05-.16.08-.24-.08-.13-.16-.27-.23-.41.04-.07.09-.15.13-.22.04-.07.08-.14.12-.2.2.12.41.25.61.37.23.14.45.29.68.43.01.09.02.17.03.26-.09.02-.19.03-.28.06.02.09.05.17.08.26.01.08.03.16.04.23-.05.05-.09.1-.14.15,0,.07,0,.14,0,.22.06.09.12.18.18.26-.1.04-.21.08-.32.12.02.08.05.15.07.22,0,.07.01.14.02.21-.02.06-.05.13-.07.19-.05.06-.11.13-.17.19.07.07.15.14.22.2Z"/>
      <path d="M72.64,13.89c-.01.17-.02.34-.04.51-.11-.05-.22-.11-.33-.16-.14-.06-.29-.12-.43-.19-.14-.16-.27-.32-.41-.48,0-.22-.02-.43-.03-.64.07-.16.13-.32.2-.48,0-.19-.01-.38-.02-.57-.04-.2-.09-.4-.14-.6.09-.15.18-.3.28-.45-.09-.18-.17-.35-.26-.52-.14-.09-.28-.18-.43-.27-.17-.11-.34-.22-.5-.33-.19-.03-.37-.07-.56-.1-.17-.12-.33-.24-.5-.36-.18-.06-.36-.12-.54-.19-.18-.04-.35-.08-.53-.13-.02.1-.04.2-.06.31-.12.04-.24.08-.35.12,0,.11-.01.22-.02.33-.08.06-.16.11-.24.16-.04.08-.08.16-.11.24-.07.06-.14.13-.21.19-.15-.17-.29-.33-.44-.49-.13-.1-.27-.21-.4-.31-.12-.08-.25-.17-.38-.25.05-.03.1-.05.15-.08.06-.03.12-.06.18-.09-.01-.09-.03-.18-.04-.27.03-.06.05-.12.08-.17.11,0,.23,0,.34-.02,0-.09-.02-.17-.03-.26.08-.04.16-.07.24-.12.11-.03.23-.06.35-.09-.04-.11-.09-.21-.13-.31.13-.03.27-.07.41-.11-.01-.09-.03-.18-.04-.27.1-.06.21-.12.32-.18.09-.07.18-.14.27-.21.02-.09.03-.18.05-.27.1-.08.21-.16.31-.24,0-.09,0-.19,0-.28.11-.09.21-.18.32-.27.05-.1.09-.19.14-.29.02-.1.05-.19.08-.29.07-.1.14-.21.21-.31.21-.07.41-.15.62-.23.2-.05.39-.09.59-.14.19-.04.39-.07.58-.11.18.02.36.04.54.07.2-.04.39-.08.58-.12.23-.11.46-.22.69-.33.03.14.07.28.1.43-.07.17-.14.33-.21.5.02.14.04.28.06.42.05.13.1.27.15.41-.08.17-.16.34-.25.5.1.14.2.28.29.42-.07.17-.14.34-.21.5-.02.16-.03.32-.05.49.03.16.06.33.09.49.01.17.03.34.04.51-.08.17-.16.34-.23.5.02.17.03.35.05.53.04.18.08.37.13.56,0,.18,0,.37-.01.55-.05.17-.11.35-.16.52.03.2.05.4.08.6.03.21.07.42.1.63-.03.19-.06.38-.09.57-.07.17-.14.34-.21.51ZM71.64,9.15c-.03-.19-.07-.38-.11-.57-.05-.16-.1-.32-.16-.47.03-.15.07-.3.1-.45-.02-.15-.04-.29-.06-.44.06-.15.13-.3.19-.45-.02-.14-.04-.28-.06-.42-.06-.13-.13-.26-.19-.38.08-.17.16-.35.24-.53-.23.09-.46.18-.69.26-.16-.01-.33-.02-.49-.03-.12.12-.24.24-.35.36-.01.12-.02.24-.04.36-.14.11-.27.21-.41.31-.05.11-.1.22-.15.33-.01.12-.02.23-.03.35-.03.11-.05.23-.08.34-.13.08-.25.16-.38.23-.01.09-.02.18-.03.28.15.05.29.09.44.14.19.04.37.08.56.11.18.05.36.11.55.16.17.11.33.23.49.35.22.04.44.09.67.13Z"/>
      <path d="M80.91,12.88c-.12.07-.24.14-.36.22,0,.06.02.11.03.17-.23.06-.46.13-.69.2-.22,0-.44,0-.66-.02-.25.06-.49.12-.74.19-.02-.08-.03-.17-.05-.26-.01-.09-.02-.18-.04-.27-.1-.07-.2-.15-.3-.23,0-.1.01-.2.02-.31.07-.11.13-.22.2-.33-.02-.1-.03-.2-.05-.31-.08-.1-.16-.21-.23-.32-.04-.11-.08-.23-.12-.35.02-.12.03-.24.05-.36-.02-.12-.03-.25-.04-.37.04-.12.08-.24.11-.36-.08-.14-.17-.29-.25-.44-.04-.14-.07-.29-.1-.44.03-.13.05-.27.08-.41.06-.13.12-.25.18-.38-.02-.15-.04-.31-.06-.47,0-.15,0-.3.01-.46,0-.18,0-.36,0-.54-.15-.12-.3-.23-.45-.35-.16-.13-.31-.25-.47-.38-.05.19-.09.38-.14.57-.03.17-.05.34-.08.51-.1.12-.21.24-.31.36.02.19.03.38.05.57-.04.16-.08.31-.12.47-.07.14-.13.29-.2.44-.05.15-.11.3-.16.45-.05.15-.11.3-.17.45.02.17.03.34.05.5-.14.13-.29.26-.43.4.05.17.09.34.14.5-.16.14-.33.28-.5.43-.05.16-.11.31-.16.47.02.16.04.31.07.46-.03.15-.06.3-.08.45-.04.15-.07.3-.11.45-.08.17-.15.35-.23.52-.26,0-.52,0-.78-.01-.21.03-.42.05-.64.08.07-.14.15-.28.22-.43.06-.18.11-.35.17-.53,0-.17.02-.35.03-.53.1-.18.2-.36.3-.54.03-.18.06-.36.08-.54-.03-.19-.05-.37-.08-.57.12-.17.25-.35.37-.52-.02-.19-.04-.39-.05-.59.09-.18.18-.35.27-.52.06-.18.13-.36.19-.54.06-.18.12-.36.17-.55.09-.17.19-.33.28-.49.09-.16.19-.32.28-.48.05-.18.09-.37.14-.55.07-.17.13-.34.2-.51.06-.18.12-.35.18-.53-.03-.24-.05-.48-.07-.73.12-.13.25-.25.37-.38,0-.27.01-.54.02-.82.15.25.3.5.46.74.15.12.31.24.46.36.14.15.29.3.43.45.17.08.33.16.5.24.13.2.26.39.39.58.13.14.25.28.38.42.05.18.1.35.15.51,0,.14-.02.29-.03.43-.04.13-.07.25-.11.38.06.17.12.34.19.51-.02.12-.05.25-.07.37.03.14.05.28.08.41.04.14.07.27.11.4-.04.11-.09.21-.13.32.07.13.14.26.21.39.04.12.08.23.12.34,0,.1,0,.21,0,.31.05.11.09.21.14.31.02.1.04.19.05.28-.02.11-.05.23-.07.34.05-.1.1-.21.15-.31.03-.08.05-.17.08-.25,0-.09,0-.18-.01-.27.1-.07.2-.13.29-.19.01-.09.03-.17.04-.26-.04-.11-.08-.22-.13-.33.05-.08.1-.15.15-.22.02-.09.05-.17.07-.26.04-.08.08-.15.12-.23,0-.11-.02-.21-.03-.32,0-.1.02-.2.02-.3.08-.05.16-.09.24-.13-.03-.13-.05-.26-.07-.39.08-.03.16-.06.23-.09.17.17.35.34.53.51.17.17.34.34.5.51.04.12.08.23.13.34-.06.03-.11.06-.17.09-.03.06-.05.12-.08.18-.02.07-.03.13-.05.2-.04.05-.08.1-.13.15,0,.08.01.16.02.24-.01.07-.02.14-.03.2-.02.06-.04.13-.05.19-.05.05-.11.1-.16.15-.02.07-.03.13-.05.2-.03.06-.07.12-.1.18-.04.06-.08.12-.11.19.02.07.03.14.05.21-.03.06-.05.13-.08.19,0,.07,0,.13,0,.19,0,.06,0,.13,0,.19,0,.06,0,.12,0,.18Z"/>
      <path d="M90.24,13.4c0,.1-.02.2-.02.3-.17-.14-.33-.27-.5-.41-.15-.15-.3-.3-.45-.45-.17-.11-.33-.22-.5-.33-.15-.15-.3-.3-.45-.45-.17-.1-.34-.2-.51-.29-.15-.19-.3-.38-.46-.57-.08.09-.16.18-.25.28,0,.14-.02.27-.03.41,0,.14,0,.28,0,.41-.09.08-.18.15-.27.23-.09.08-.18.16-.27.25,0,.13,0,.26,0,.39-.08.09-.16.18-.24.27.05.15.1.3.16.44-.1.08-.2.17-.31.25,0,.12,0,.24-.01.35-.05.1-.11.21-.16.31-.07.1-.15.2-.22.3.02.12.04.24.07.35-.16.09-.31.18-.47.27.07.12.14.24.22.35-.15.1-.3.2-.46.3.03.14.05.27.08.41l-.88.02c-.2-.05-.39-.1-.59-.16.06-.1.12-.2.18-.3.01-.12.03-.25.04-.38.02-.13.03-.26.05-.39.14-.12.28-.23.42-.34-.03-.13-.06-.27-.08-.41.05-.13.1-.25.15-.38.09-.12.19-.23.28-.34-.02-.15-.05-.29-.07-.45.09-.11.18-.23.27-.34.06-.12.12-.25.17-.37.12-.1.24-.19.36-.28.05-.12.09-.25.14-.38.04-.13.07-.26.11-.4.04-.13.07-.27.11-.4.02-.15.04-.29.06-.44.04-.13.09-.27.13-.4.06-.1.13-.2.19-.3-.12-.17-.24-.34-.36-.52-.18-.08-.36-.15-.54-.23-.15-.14-.31-.28-.46-.42-.15-.15-.29-.31-.44-.46-.15-.14-.31-.28-.46-.42-.2-.11-.41-.22-.61-.33.15-.21.29-.41.43-.62.08-.22.15-.45.23-.67.16.11.33.22.49.33.13.18.27.37.41.55.16.12.32.25.48.37.14.17.28.34.42.51.16.14.31.27.46.41.12.23.24.45.36.67.03-.06.05-.13.08-.19.15.24.3.47.45.7.19.14.38.28.57.43,0,.02-.02.04-.03.06.15.15.3.3.45.45.14.17.28.34.42.51.15.15.3.3.45.45.16.13.32.25.47.38.14.18.28.35.42.52.18.15.36.31.53.46-.07.04-.14.08-.22.13Z"/>
    </g>
  </g>
</svg>